HIERARCHY
ROOT hip
{
	OFFSET 0.000000 0.000000 0.000000 
	CHANNELS 6 Xposition Yposition Zposition Xrotation Zrotation Yrotation
	JOINT abdomen
	{
		OFFSET 0.000000 3.402643 0.000000 
		CHANNELS 3 Xrotation Zrotation Yrotation
		JOINT chest
		{
			OFFSET 0.000000 8.438565 -0.680529 
			CHANNELS 3 Xrotation Zrotation Yrotation
			JOINT neck
			{
				OFFSET 0.000000 10.207942 -0.272212 
				CHANNELS 3 Xrotation Zrotation Yrotation
				JOINT head
				{
					OFFSET 0.000000 3.130431 0.000000 
					CHANNELS 3 Xrotation Zrotation Yrotation
					End Site
					{
						OFFSET 0.000000 3.130435 0.000000 
					}
				}
			}
			JOINT lCollar
			{
				OFFSET 3.470700 6.669187 -0.816635 
				CHANNELS 3 Yrotation Zrotation Xrotation
				JOINT lShldr
				{
					OFFSET 3.198488 0.000000 0.000000 
					CHANNELS 3 Zrotation Yrotation Xrotation
					JOINT lForeArm
					{
						OFFSET 10.139888 0.000000 0.000000 
						CHANNELS 3 Yrotation Zrotation Xrotation
						JOINT lHand
						{
							OFFSET 8.370511 0.000000 0.000000 
							CHANNELS 3 Zrotation Yrotation Xrotation
							End Site
							{
								OFFSET 4.083176 0.000000 0.000000 
							}
						}
					}
				}
			}
			JOINT rCollar
			{
				OFFSET -3.470700 6.669187 -0.816635 
				CHANNELS 3 Yrotation Zrotation Xrotation
				JOINT rShldr
				{
					OFFSET -3.198488 0.000000 0.000000 
					CHANNELS 3 Zrotation Yrotation Xrotation
					JOINT rForeArm
					{
						OFFSET -10.139888 0.000000 0.000000 
						CHANNELS 3 Yrotation Zrotation Xrotation
						JOINT rHand
						{
							OFFSET -8.370511 0.000000 0.000000 
							CHANNELS 3 Zrotation Yrotation Xrotation
							End Site
							{
								OFFSET -4.083176 0.000000 0.000000 
							}
						}
					}
				}
			}
		}
	}
	JOINT lThigh
	{
		OFFSET 5.308129 -1.633274 1.361059 
		CHANNELS 3 Xrotation Zrotation Yrotation
		JOINT lShin
		{
			OFFSET -2.041588 -20.007561 0.000000 
			CHANNELS 3 Xrotation Zrotation Yrotation
			JOINT lFoot
			{
				OFFSET 0.000000 -19.190928 -1.224953 
				CHANNELS 3 Xrotation Yrotation Zrotation
				End Site
				{
					OFFSET 0.000000 -2.449906 4.627600 
				}
			}
		}
	}
	JOINT rThigh
	{
		OFFSET -5.308129 -1.633274 1.361059 
		CHANNELS 3 Xrotation Zrotation Yrotation
		JOINT rShin
		{
			OFFSET 2.041588 -20.007561 0.000000 
			CHANNELS 3 Xrotation Zrotation Yrotation
			JOINT rFoot
			{
				OFFSET 0.000000 -19.190928 -1.224953 
				CHANNELS 3 Xrotation Yrotation Zrotation
				End Site
				{
					OFFSET 0.000000 -2.449906 4.627600 
				}
			}
		}
	}
}
MOTION
Frames: 19
Frame Time: 0.033333
0.429160 38.159389 -3.460248 0.371094 9.140626 -3.973058 0.000000 0.000000 0.000000 6.816406 -3.144531 0.956496 44.531254 2.578125 2.148877 -33.710938 3.154297 -0.917969 0.429688 -4.169922 25.000000 1.992188 -83.984375 -39.599552 -78.828125 0.546875 45.214745 58.261719 -0.957031 -12.958985 5.859375 1.259766 24.999784 20.214844 67.246094 -28.330078 85.546875 -5.566406 44.219700 -42.802734 -0.888672 -10.019531 -36.510471 6.639986 -2.688952 65.851692 -4.012753 -27.412020 -12.421247 2.352019 -15.183494 -36.633957 -12.956609 -2.057104 69.773041 -4.452666 11.162318 -23.732397 -1.276499 4.686548 
-0.104411 38.288815 -3.587733 1.826172 5.859343 -1.288074 0.000000 0.000000 0.000000 6.650391 -2.275391 0.693359 43.388676 6.894531 2.501172 -33.544922 4.775391 -0.878906 -0.976563 -2.304688 25.000000 -63.164066 -92.089844 27.070311 -74.648445 0.703125 47.451176 58.564453 -0.986328 -13.017578 3.994141 3.388672 25.000000 18.779297 60.888672 -29.952404 87.695313 -5.517578 43.271481 -43.154297 -1.044922 -10.009945 -38.147736 7.167210 -8.101907 65.577133 -3.873784 -23.351685 -14.328568 2.058065 -12.472668 -36.138779 -11.765948 -7.974889 68.423752 -4.325222 12.722105 -22.289276 -1.138987 4.279944 
-0.730168 38.464848 -3.663340 3.515625 1.914063 1.025717 0.000000 0.000000 0.000000 6.289063 -1.416016 0.332031 41.552738 10.566406 2.677572 -32.587891 7.314454 -0.722656 -2.255859 -1.816406 25.000000 -3.095710 -97.626953 -30.625000 -70.859375 0.849609 49.404152 58.916016 -0.810547 -12.978655 1.660156 6.728516 25.000000 22.587891 53.867184 -26.416014 90.410156 -5.527344 43.613281 -43.837891 -1.894531 -9.716797 -39.689381 8.076488 -14.533832 64.684135 -3.770239 -18.326475 -16.982273 1.731599 -9.491329 -35.770157 -9.755276 -13.533247 66.539536 -4.090770 15.557453 -20.876438 -1.205559 4.749501 
-1.233103 38.596653 -3.656595 5.009765 -1.240234 1.933594 0.000000 0.000000 0.000000 6.074219 -1.083984 0.019531 39.355473 12.373047 2.697405 -31.640623 9.755859 -0.721002 -3.085938 -2.705078 24.140625 15.029312 -101.943359 -46.054478 -69.638672 0.810547 48.808456 58.818359 -0.839844 -12.968751 -0.292969 9.306641 24.453127 29.111328 49.140621 -21.496519 93.027344 -5.595703 45.224609 -44.150391 -2.060547 -9.678084 -40.489025 8.946349 -20.049435 63.473461 -3.720994 -13.488641 -19.611717 1.508335 -7.703350 -35.629963 -7.634200 -17.027727 64.659538 -3.824972 18.754791 -20.062323 -1.024541 4.214557 
-1.621445 38.625851 -3.568855 6.298828 -3.710938 2.352883 0.000000 0.000000 0.000000 5.859375 -0.888672 -0.283203 37.294922 13.359375 2.443663 -30.869143 12.246093 -0.966797 -3.388672 -5.380860 23.311460 33.681656 -106.054688 -61.552353 -69.775391 0.869141 49.648289 58.681644 -0.585938 -12.802813 -2.392578 12.363283 23.818359 36.025391 44.775391 -16.125933 95.673828 -5.683593 46.962891 -44.472660 -1.406250 -10.000001 -40.387199 9.609780 -24.785656 61.850574 -3.681899 -8.388221 -23.253092 1.189017 -5.792943 -34.699059 -5.601123 -20.734322 62.099049 -3.593562 19.665104 -21.288828 -0.149393 0.223667 
-1.933538 38.598316 -3.449773 7.724609 -5.957031 2.792969 0.000000 0.000000 0.000000 5.585938 -0.439453 -0.459059 34.599609 14.033203 1.896900 -29.511721 14.765626 -1.464844 -3.984375 -8.828126 22.246094 52.373070 -111.435547 -78.388000 -70.644531 1.132813 54.013481 59.365231 0.332031 -12.363292 -4.228516 16.152344 22.936737 42.275391 39.179691 -11.263358 98.408203 -5.761718 49.092777 -45.546875 -1.181641 -10.234576 -40.311020 10.420048 -28.654331 60.073967 -3.613210 -3.489223 -26.716961 0.858994 -4.066431 -33.502457 -3.250252 -24.388355 58.817471 -3.339571 18.394184 -23.802452 1.370760 -5.421013 
-2.111435 38.512753 -3.318010 8.837891 -7.373047 2.899137 0.000000 0.000000 0.000000 5.498047 -0.146484 -0.468775 31.679688 13.691408 1.193718 -28.378906 17.119141 -2.558594 -3.994141 -11.513671 21.925777 -114.843758 -62.548832 88.837891 -72.988281 1.181641 55.478516 58.349609 -0.625000 -12.763779 -5.410157 18.837891 22.783203 48.212891 33.789063 -8.148866 100.673828 -5.820313 50.712891 -46.357418 -2.148437 -9.892943 -40.376316 11.124125 -31.056847 58.961704 -3.574153 -0.429295 -29.341984 0.701787 -3.431485 -33.258003 -1.443889 -25.867437 57.018707 -3.184221 17.122875 -25.458687 2.311467 -8.430722 
-2.035471 38.356396 -3.204146 8.867188 -7.382812 1.972656 0.000000 0.000000 0.000000 5.654297 -0.429688 -0.332105 30.478521 12.607422 1.115413 -28.330080 17.607422 -3.447265 -2.919922 -12.832032 22.636715 -107.089844 -59.082031 80.419922 -75.732422 1.181641 55.400188 56.777344 -2.333985 -13.496492 -5.263671 19.804686 23.590441 52.988281 30.019527 -6.337891 101.982422 -5.859375 51.758808 -47.119141 -2.353516 -9.873448 -39.884731 11.544802 -30.752630 59.239460 -3.554080 0.155524 -31.007423 0.804136 -3.646815 -33.559917 -0.935953 -24.683836 57.690174 -3.212693 16.593233 -26.044798 2.414646 -8.618943 
-1.718790 38.189190 -3.161110 8.105469 -6.826172 1.121886 0.000000 0.000000 0.000000 5.917969 -0.742188 -0.293095 31.523438 11.240234 1.025391 -29.453125 17.568359 -3.942366 -2.636719 -12.871095 23.722876 -101.162109 -60.859375 73.359375 -77.646484 1.318359 58.124897 56.826168 -2.441406 -13.564452 -4.833984 19.101561 24.677736 54.365234 30.751953 -5.170787 101.972656 -5.927735 52.880863 -46.904301 -2.197266 -9.931640 -39.489075 11.680065 -28.340065 60.555752 -3.535240 -1.383510 -31.316936 0.561656 -2.904550 -34.201645 -1.657250 -22.974344 59.997387 -3.457360 16.807100 -25.483612 1.770108 -6.607432 
-1.180984 38.039371 -3.206220 6.982422 -5.351563 -0.196226 0.000000 0.000000 0.000000 6.123047 -1.318336 -0.273665 33.798832 10.019531 0.919667 -28.847656 15.732422 -3.493446 -2.558594 -12.187498 24.501955 -95.449219 -66.875000 65.703903 -79.023438 1.347656 59.062496 57.939449 -1.328125 -13.115233 -3.935547 17.265625 24.999996 51.562500 36.347656 -4.267579 100.878906 -5.966797 53.174839 -46.767574 -2.363281 -9.834387 -38.629318 11.347747 -24.381796 61.864124 -3.526600 -3.680941 -31.203907 0.274932 -2.075390 -35.319031 -3.240789 -20.075089 63.128677 -3.718540 17.249384 -24.021152 0.958846 -3.802078 
-0.467136 37.920322 -3.288286 6.250000 -3.251953 -2.422429 0.000000 0.000000 0.000000 6.142578 -1.884766 -0.176102 35.439453 7.744141 0.958347 -26.552734 12.968750 -2.849371 -2.177734 -12.089844 24.621185 -80.751953 -73.457031 48.603512 -80.722656 1.083984 54.521484 58.320316 -0.517578 -12.705165 -2.216797 14.345702 24.997580 47.490234 45.410156 -4.169923 98.994141 -5.966796 52.558594 -46.279301 -2.431641 -9.746025 -37.869003 10.878643 -19.294802 62.950802 -3.561277 -6.174644 -30.818146 0.117839 -1.675028 -37.066044 -4.696105 -15.779325 65.741623 -3.985029 16.777321 -22.668818 0.300466 -1.371401 
0.350013 37.867519 -3.323312 5.498047 -0.703125 -4.804808 0.000000 0.000000 0.000000 6.103516 -2.441406 0.000000 37.363281 5.556641 1.201172 -25.029297 8.808594 -1.863739 -1.865234 -11.933593 24.511723 -50.048828 -75.966797 15.380860 -82.001953 0.761719 48.896423 58.906250 -0.009766 -12.490233 -0.029297 10.869141 24.873045 43.974609 55.097656 -4.843750 96.738281 -5.898438 50.869141 -45.791016 -1.904297 -9.931641 -37.144363 9.872585 -13.952423 63.957310 -3.571748 -8.788514 -29.575054 0.391398 -2.528896 -38.264725 -5.896744 -10.700660 67.150009 -4.129046 15.098895 -22.253626 0.108552 -0.733775 
1.185010 37.920681 -3.312991 4.912109 1.972656 -6.640288 0.000000 0.000000 0.000000 6.074219 -2.812500 0.156250 39.570313 3.486328 1.376953 -25.117188 4.687500 -0.819515 -1.679688 -11.894531 24.406309 -24.052734 -72.255859 -12.529297 -82.363281 0.566406 45.664063 58.349609 -0.527344 -12.714932 2.148437 7.148437 24.560547 41.972656 63.974613 -5.420911 93.974609 -5.859375 49.405293 -45.068359 -1.796875 -9.902650 -36.803246 8.446714 -9.140550 64.672981 -3.591295 -11.666923 -27.363317 0.703526 -3.625149 -38.814106 -7.079479 -5.702216 67.226852 -4.209868 12.703097 -22.953379 0.243605 -1.215546 
2.033039 38.029842 -3.262222 4.511719 4.902344 -8.261718 0.000000 0.000000 0.000000 6.064453 -3.037110 0.331514 41.572266 1.650391 1.338172 -25.566406 0.058594 0.273447 -1.123047 -12.353516 24.384766 -14.609373 -65.703117 -22.938585 -82.597656 0.468750 44.286983 57.685543 -1.025391 -12.900390 4.169922 3.144531 24.394533 44.013672 71.835938 -3.203124 90.830078 -5.771485 47.910156 -44.248047 -1.621094 -9.882813 -36.511444 6.776961 -4.262875 64.783417 -3.677775 -14.247881 -25.141445 0.812050 -4.120583 -39.245953 -8.496021 -0.589160 66.705368 -4.227742 10.247852 -23.856243 0.423793 -1.749015 
2.866263 38.136623 -3.150694 4.160156 8.076173 -10.428315 0.000000 0.000000 0.000000 6.103516 -3.427734 0.576172 43.359375 -0.312500 1.259712 -26.425781 -5.087890 1.367188 0.087891 -13.505859 24.550779 -12.724609 -58.183594 -24.793457 -83.642578 0.332031 42.255829 57.919922 -1.025391 -12.929862 5.625000 0.097656 24.374977 61.015625 78.730469 13.544919 87.207031 -5.820313 48.222660 -43.974609 -1.210938 -10.029504 -35.761013 5.322473 1.625645 64.293045 -3.778886 -16.375694 -23.410616 0.616294 -3.450323 -40.000690 -9.784157 5.345064 66.193611 -4.227231 7.887222 -24.827036 0.328842 -1.391755 
3.625501 38.192043 -2.938402 3.779297 11.396484 -13.035180 0.000000 0.000000 0.000000 6.142578 -4.150391 0.653590 43.964840 -3.310547 1.337891 -26.552734 -9.023438 2.478937 1.757813 -15.478517 24.807295 -14.628906 -49.619137 -22.829704 -86.074219 0.302734 41.513668 58.808590 -0.625000 -12.841799 6.601562 -1.328125 24.531250 109.345703 80.644531 62.158203 83.867188 -5.830078 48.448261 -43.906250 -1.162109 -10.039262 -34.799854 4.109960 8.166332 63.680817 -3.874778 -19.042770 -21.981150 0.405991 -2.713933 -41.031219 -10.966398 11.799292 65.862175 -4.256062 6.210675 -25.974041 0.197901 -0.840604 
4.349378 38.217068 -2.650348 3.457031 14.746092 -15.175782 0.000000 0.000000 0.000000 6.142579 -4.619141 0.633979 43.916016 -6.083984 0.877871 -26.269533 -12.714844 3.251953 3.017578 -19.062502 24.885998 -18.837889 -40.390625 -19.215311 -89.472656 0.341797 42.421875 59.355465 -0.527344 -12.861326 6.865234 -1.230469 24.502163 -44.824219 105.117188 -90.332031 81.562500 -5.820313 48.525391 -44.160156 -1.738281 -9.824218 -33.969135 2.429654 13.889725 62.885983 -3.970755 -21.347786 -20.926863 0.291565 -2.170478 -42.008389 -12.705112 17.457727 65.366829 -4.223721 4.590289 -27.655630 0.050883 -0.391141 
4.948154 38.195377 -2.326087 2.929688 16.884768 -16.686617 0.000000 0.000000 0.000000 6.230468 -4.609375 0.644531 43.007813 -8.085938 0.711517 -25.000000 -15.585937 3.574219 4.726563 -23.056641 25.000000 -24.257811 -32.060547 -15.210261 -92.705078 0.351563 42.675781 60.136723 -0.742188 -13.115359 6.250000 1.679688 24.931355 -43.066414 112.138664 -85.146484 79.882813 -5.849610 49.023441 -44.365234 -2.548828 -9.492620 -32.908234 1.151922 18.276094 62.251751 -4.047307 -22.925207 -20.686106 0.015086 -1.135434 -42.026268 -14.033533 21.385496 64.517120 -4.204253 2.514391 -29.500423 0.152742 -0.656789 
5.441695 38.112797 -1.963488 2.529297 18.769533 -18.457031 0.000000 0.000000 0.000000 6.289063 -4.726563 0.742188 40.957027 -9.990233 1.181641 -22.773439 -18.232422 3.671875 7.539063 -25.000000 25.000000 -30.527346 -25.068357 -11.699219 -94.824219 0.390625 43.349575 61.943359 -0.498047 -13.252039 5.888672 5.615234 24.999046 -49.062504 118.876953 -87.353516 78.593750 -5.830078 48.965836 -45.341797 -2.900391 -9.443359 -31.593081 -0.374418 22.036377 61.191055 -4.117317 -23.287720 -22.183716 -0.523387 1.028768 -42.668484 -15.069170 24.795788 64.409088 -4.185662 1.790616 -31.113203 -0.007846 -0.122541 
